<svg xmlns="http://www.w3.org/2000/svg" xmlns:xlink="http://www.w3.org/1999/xlink" viewBox="0 0 48 48"><defs><linearGradient id="a" x1="29" x2="38" y1="18.5" y2="18.5" gradientUnits="userSpaceOnUse"><stop offset="0" stop-color="#0abeb0"/><stop offset="1" stop-color="#0dddad"/></linearGradient><linearGradient id="c" x1="23" x2="44" y1="31.5" y2="31.5" xlink:href="#a"/><linearGradient id="b" x1="18.5" x2="18.5" y1="40" y2="11.89" gradientUnits="userSpaceOnUse"><stop offset="0" stop-color="#1f7cf9"/><stop offset=".994" stop-color="#00b4ff"/></linearGradient><linearGradient id="d" x1="19" x2="19" y1="39" y2="10.89" xlink:href="#b"/></defs><path fill="url(#a)" d="m29,19.06v-1.12c0-2.54,1.8-4.71,4.09-4.92,1.23-.12,2.42.29,3.35,1.13.99.91,1.56,2.22,1.56,3.6v1.5c0,1.38-.57,2.69-1.56,3.6-.82.75-1.85,1.15-2.94,1.15-.13,0-.27-.01-.41-.02-2.29-.21-4.09-2.38-4.09-4.92Z"/><path fill="url(#c)" d="m44,33v1c0,1.65-1.35,3-3,3h-15c-1.65,0-3-1.35-3-3v-1c0-3.86,3.14-7,7-7h7c3.86,0,7,3.14,7,7Z"/><path fill="url(#b)" d="m31,35v2c0,1.65-1.35,3-3,3H9c-1.65,0-3-1.35-3-3v-2c0-4.96,4.04-9,9-9h7c4.96,0,9,4.04,9,9Z"/><path fill="url(#d)" d="m13,17.74v-1.48c0-3.23,2.4-5.97,5.47-6.24,1.7-.15,3.33.41,4.58,1.56,1.2401,1.13,1.95,2.74,1.95,4.42v2c0,1.68-.71,3.29-1.95,4.42-1.12,1.03-2.54,1.58-4.04,1.58-.18,0-.36-.01-.54-.02-3.07-.27-5.47-3.01-5.47-6.24Z"/></svg>